<svg width="252" height="83" viewBox="0 0 252 83" fill="none" xmlns="http://www.w3.org/2000/svg">
<path d="M84.8448 38.1571L90.6273 30.582H96.5661L89.2344 39.275L97.2253 48.9437H91.0214L84.8448 40.9757H84.7837V48.9437H80V30.582H84.7837V38.1571H84.8448Z" fill="white"/>
<path d="M102.641 47.2494L96.5801 36.4492H101.71L105.06 42.8589L108.329 36.4492H113.384L103.355 55.1835H98.3672L102.641 47.2494Z" fill="white"/>
<path d="M119.248 40.1087V48.944H114.811V40.1087H113.37V36.4431H114.811V32.6963H119.248V36.4431H121.762V40.1087H119.248Z" fill="white"/>
<path d="M136.901 36.4495V48.9503H132.45V47.5546H132.403C131.649 48.7606 130.385 49.3636 128.625 49.3636C126.797 49.3636 125.275 48.6996 124.059 47.3784C122.883 46.0911 122.292 44.5327 122.292 42.6897C122.292 40.8468 122.87 39.2952 124.032 38.0146C125.227 36.7002 126.736 36.043 128.564 36.043C130.235 36.043 131.526 36.585 132.45 37.6691V36.4427H136.901V36.4495ZM129.739 39.8847C128.897 39.8847 128.21 40.1489 127.674 40.6774C127.137 41.2059 126.872 41.8835 126.872 42.7168C126.872 43.5638 127.137 44.2413 127.667 44.7495C128.197 45.2577 128.883 45.5084 129.739 45.5084C130.595 45.5084 131.275 45.2509 131.805 44.7427C132.335 44.2346 132.593 43.557 132.593 42.7168C132.593 41.8835 132.328 41.2059 131.791 40.6774C131.255 40.1489 130.575 39.8847 129.739 39.8847Z" fill="white"/>
<path d="M144.299 48.4622V30.1006H151.624C153.696 30.1006 155.313 30.5816 156.469 31.537C157.712 32.5736 158.33 34.1117 158.33 36.1376C158.33 40.291 156.156 42.371 151.807 42.371H149.089V48.4622H144.299ZM149.082 33.9355V38.5158H149.891C151.053 38.5158 151.841 38.4277 152.263 38.2448C152.976 37.9331 153.336 37.2826 153.336 36.2799C153.336 35.25 152.996 34.5724 152.31 34.2472C151.875 34.0439 151.067 33.9355 149.891 33.9355H149.082Z" fill="white"/>
<path d="M164.806 28.2373V48.4622H160.355V28.2373H164.806Z" fill="white"/>
<path d="M181.447 35.9613V48.4621H176.996V47.0731H176.949C176.195 48.2792 174.931 48.8822 173.171 48.8822C171.343 48.8822 169.821 48.2182 168.605 46.8969C167.429 45.6096 166.838 44.0512 166.838 42.2083C166.838 40.3654 167.415 38.8138 168.577 37.5332C169.773 36.2187 171.282 35.5615 173.11 35.5615C174.781 35.5615 176.079 36.1036 176.996 37.1876V35.9613H181.447ZM174.285 39.3965C173.443 39.3965 172.756 39.6607 172.22 40.1892C171.683 40.7177 171.418 41.3952 171.418 42.2286C171.418 43.0756 171.683 43.7531 172.213 44.2613C172.743 44.7694 173.429 45.0201 174.285 45.0201C175.135 45.0201 175.821 44.7627 176.351 44.2545C176.874 43.7463 177.139 43.0688 177.139 42.2286C177.139 41.3952 176.874 40.7177 176.337 40.1892C175.807 39.6607 175.121 39.3965 174.285 39.3965Z" fill="white"/>
<path d="M189.248 39.6204V48.4625H184.811V39.6204H183.37V35.9549H184.811V32.208H189.248V35.9549H191.762V39.6204H189.248Z" fill="white"/>
<path d="M198.061 39.62V48.462H193.623V39.62H192.061V35.9544H193.623V34.3758C193.623 33.3391 193.685 32.5667 193.8 32.0585C193.977 31.32 194.337 30.6357 194.887 29.9988C196.042 28.664 197.497 28 199.263 28C199.97 28 200.609 28.1491 201.173 28.4404V32.255C200.52 31.9772 199.997 31.8417 199.61 31.8417C198.577 31.8417 198.061 32.5396 198.061 33.9353V35.9544H201.173V39.62H198.061Z" fill="white"/>
<path d="M209.286 35.5547C211.399 35.5547 213.165 36.1306 214.572 37.2757C216.081 38.5156 216.835 40.162 216.835 42.2218C216.835 44.2748 216.074 45.9212 214.558 47.1611C213.152 48.2994 211.392 48.8753 209.286 48.8753C207.179 48.8753 205.419 48.3062 204.013 47.1611C202.491 45.9348 201.736 44.2883 201.736 42.2218C201.736 40.1553 202.491 38.5088 203.999 37.2757C205.406 36.1306 207.166 35.5547 209.286 35.5547ZM209.286 39.3964C208.443 39.3964 207.757 39.6606 207.22 40.1891C206.683 40.7176 206.418 41.3952 206.418 42.2286C206.418 43.0755 206.683 43.7531 207.213 44.2612C207.743 44.7694 208.429 45.0201 209.286 45.0201C210.135 45.0201 210.828 44.7694 211.351 44.2612C211.874 43.7531 212.146 43.0755 212.146 42.2286C212.146 41.3952 211.881 40.7176 211.344 40.1891C210.808 39.6606 210.128 39.3964 209.286 39.3964Z" fill="white"/>
<path d="M223.291 35.9614V38.0076H223.338C224.16 36.5305 225.513 35.792 227.395 35.792H228.244V40.047C227.748 39.776 227.13 39.6405 226.369 39.6405C224.317 39.6405 223.291 40.9007 223.291 43.4077V48.4486H218.84V35.9614H223.291Z" fill="white"/>
<path d="M234.36 35.9612V37.5196H234.407C235.399 36.2119 236.718 35.5547 238.355 35.5547C240.346 35.5547 241.773 36.3474 242.636 37.9329C243.051 37.1808 243.649 36.5913 244.423 36.1577C245.171 35.7512 245.993 35.5547 246.883 35.5547C249.737 35.5547 251.164 37.2011 251.164 40.4873V48.462H246.713V42.4928C246.713 41.4697 246.638 40.738 246.496 40.3043C246.231 39.498 245.694 39.0915 244.872 39.0915C243.968 39.0915 243.356 39.4709 243.044 40.2366C242.847 40.7176 242.745 41.4765 242.745 42.4928V48.462H238.294V42.4928C238.294 41.4291 238.213 40.6702 238.056 40.223C237.771 39.3964 237.193 38.9831 236.33 38.9831C235.454 38.9831 234.876 39.3964 234.591 40.223C234.435 40.677 234.353 41.4358 234.353 42.4928V48.462H229.902V35.9612H234.36Z" fill="white"/>
<path d="M31.0119 22.1017C35.2044 22.1017 38.6155 25.503 38.6155 29.6835C38.6155 31.2554 38.133 32.7122 37.3109 33.925L41.6189 38.2207L47.0616 32.7935L47.4625 32.3937L47.8838 31.9736C48.1013 35.2056 50.7989 37.7667 54.0944 37.7667C57.5327 37.7667 60.3254 34.982 60.3254 31.5536C60.3254 28.2674 57.7569 25.5776 54.5225 25.3607L54.9438 24.9407L55.3447 24.5409L60.7875 19.1137L55.9291 14.2692C54.706 15.5837 52.9665 16.4103 51.0299 16.4103C47.3334 16.4103 44.3437 13.4223 44.3437 9.74318C44.3437 7.81216 45.1726 6.07086 46.4909 4.85804L41.6189 0L22.457 19.1069L26.765 23.4026C27.9746 22.5828 29.4423 22.1017 31.0119 22.1017Z" fill="#00BD8E"/>
<path d="M21.5469 51.4527C21.5469 47.2723 24.958 43.8709 29.1505 43.8709C31.0395 43.8709 32.7722 44.5688 34.104 45.7139L38.3305 41.4995L33.6148 36.7973L32.8945 36.0791L32.1402 35.327C33.7778 35.0018 35.164 33.9855 35.993 32.5965C36.5026 31.7428 36.7948 30.7468 36.7948 29.683C36.7948 26.5053 34.2059 23.9238 31.0191 23.9238C29.9523 23.9238 28.9534 24.222 28.0972 24.7234C26.7043 25.5432 25.685 26.9254 25.3589 28.5651L24.6046 27.813L23.8843 27.0948L19.1686 22.3926L0 41.4995L19.1618 60.6065L23.3883 56.3921C22.24 55.0641 21.5469 53.3431 21.5469 51.4527Z" fill="#7455FE"/>
<path d="M54.937 58.0661L54.5157 57.646C57.7569 57.4292 60.3254 54.7393 60.3254 51.4532C60.3254 48.0248 57.5327 45.24 54.0944 45.24C50.7988 45.24 48.1012 47.8012 47.8838 51.0263L47.4625 50.6062L47.0616 50.2065L41.6188 44.7793L36.5634 49.8203L35.7751 50.6062L34.919 51.46V51.4532C34.919 49.6644 34.0968 48.0586 32.8057 47.0017C31.8069 46.1886 30.5362 45.694 29.1432 45.694C25.9564 45.694 23.3675 48.2755 23.3675 51.4532C23.3675 52.8354 23.8568 54.1092 24.6789 55.1052C25.739 56.3925 27.3494 57.2124 29.1432 57.2124H29.15L28.2939 58.0661L27.5057 58.852L22.4502 63.893L41.612 83L46.4704 78.1555C45.1522 76.9359 44.3232 75.2013 44.3232 73.2703C44.3232 69.5844 47.3198 66.6032 51.0095 66.6032C52.946 66.6032 54.6924 67.4298 55.9087 68.7443L60.7671 63.8998L55.3243 58.4726L54.937 58.0661Z" fill="#01BCFE"/>
</svg>
